#Comment line ignore any data following # character 
#Hierarchical Translation and Rotation (.htr) file 
[Header]	
#Header keywords are followed by a single value 
FileType HTR		#Single word string
DataType HTRS		#Translation followed by rotation and scale data
FileVersion 1		#integer
NumSegments 84		#integer
NumFrames 2		#integer
DataFrameRate 30		#integer, data frame rate in this file
EulerRotationOrder ZYX
CalibrationUnits mm
RotationUnits Degrees
GlobalAxisofGravity Y
BoneLengthAxis Y
ScaleFactor 1.00
[SegmentNames&Hierarchy]
#CHILD	PARENT
MASTER GLOBAL
root MASTER
chest root
L_mid_tent01 root
R_mid_tent01 root
spine01 root
Bip01_Neck chest
L_humerus chest
R_humerus chest
weapon_bone chest
Bip01_Head Bip01_Neck
eye_left_bone Bip01_Head
eye_right_bone Bip01_Head
L_forearm L_humerus
L_front_hand L_forearm
L_weapon_bone L_forearm
L_front_hand01_01 L_front_hand
L_front_hand02_01 L_front_hand
L_front_hand03_01 L_front_hand
L_front_hand01_02 L_front_hand01_01
L_front_hand02_02 L_front_hand02_01
L_front_hand03_02 L_front_hand03_01
R_forearm R_humerus
R_front_hand R_forearm
R_weapon_bone R_forearm
R_front_hand01_01 R_front_hand
R_front_hand02_01 R_front_hand
R_front_hand03_01 R_front_hand
R_front_hand01_02 R_front_hand01_01
R_front_hand02_02 R_front_hand02_01
R_front_hand03_02 R_front_hand03_01
null_rope01_connect L_mid_tent01
Rope1_Seg01 null_rope01_connect
Rope1_Seg02 Rope1_Seg01
Rope1_Seg03 Rope1_Seg02
Rope1_Seg04 Rope1_Seg03
Rope1_Seg05 Rope1_Seg04
Rope1_Seg06 Rope1_Seg05
Rope1_Seg07 Rope1_Seg06
Rope1_Seg09 Rope1_Seg07
L_mid_hand01 Rope1_Seg09
L_mid_hand02 Rope1_Seg09
L_mid_hand03 Rope1_Seg09
null_rope02_connect R_mid_tent01
Rope2_Seg01 null_rope02_connect
Rope2_Seg02 Rope2_Seg01
Rope2_Seg03 Rope2_Seg02
Rope2_Seg04 Rope2_Seg03
Rope2_Seg05 Rope2_Seg04
Rope2_Seg06 Rope2_Seg05
Rope2_Seg07 Rope2_Seg06
Rope2_Seg09 Rope2_Seg07
R_mid_hand01 Rope2_Seg09
R_mid_hand02 Rope2_Seg09
R_mid_hand03 Rope2_Seg09
spine02 spine01
spine03 spine02
pelvis spine03
null_rope03_connect pelvis
null_rope04_connect pelvis
Rope3_Seg01 null_rope03_connect
Rope3_Seg02 Rope3_Seg01
Rope3_Seg03 Rope3_Seg02
Rope3_Seg04 Rope3_Seg03
Rope3_Seg05 Rope3_Seg04
Rope3_Seg06 Rope3_Seg05
Rope3_Seg07 Rope3_Seg06
Rope3_Seg08 Rope3_Seg07
Rope3_Seg09 Rope3_Seg08
R_rear_hand01 Rope3_Seg09
R_rear_hand02 Rope3_Seg09
R_rear_hand03 Rope3_Seg09
Rope4_Seg01 null_rope04_connect
Rope4_Seg02 Rope4_Seg01
Rope4_Seg03 Rope4_Seg02
Rope4_Seg04 Rope4_Seg03
Rope4_Seg05 Rope4_Seg04
Rope4_Seg06 Rope4_Seg05
Rope4_Seg07 Rope4_Seg06
Rope4_Seg08 Rope4_Seg07
Rope4_Seg09 Rope4_Seg08
L_rear_hand01 Rope4_Seg09
L_rear_hand02 Rope4_Seg09
L_rear_hand03 Rope4_Seg09
[BasePosition]
#SegmentName Tx, Ty, Tz, Rx, Ry, Rz, BoneLength
MASTER 0.000000 0.000000 0.000000 -90.000000 0.000000 0.000000 10.000000 
root 0.000000 0.000000 0.000000 0.000000 0.000000 0.000000 10.000000 
chest 0.000000 0.000000 0.000000 0.000000 0.000000 0.000000 10.000000 
L_mid_tent01 0.000000 0.000000 0.000000 0.000000 0.000000 0.000000 10.000000 
R_mid_tent01 0.000000 0.000000 0.000000 0.000000 0.000000 0.000000 10.000000 
spine01 0.000000 0.000000 0.000000 0.000000 0.000000 0.000000 10.000000 
Bip01_Neck 0.000000 0.000000 0.000000 0.000000 0.000000 0.000000 10.000000 
L_humerus 0.000000 0.000000 0.000000 0.000000 0.000000 0.000000 10.000000 
R_humerus 0.000000 0.000000 0.000000 0.000000 0.000000 0.000000 10.000000 
weapon_bone 0.000000 0.000000 0.000000 0.000000 0.000000 0.000000 10.000000 
Bip01_Head 0.000000 0.000000 0.000000 0.000000 0.000000 0.000000 10.000000 
eye_left_bone 0.000000 0.000000 0.000000 0.000000 0.000000 0.000000 10.000000 
eye_right_bone 0.000000 0.000000 0.000000 0.000000 0.000000 0.000000 10.000000 
L_forearm 0.000000 0.000000 0.000000 0.000000 0.000000 0.000000 10.000000 
L_front_hand 0.000000 0.000000 0.000000 0.000000 0.000000 0.000000 10.000000 
L_weapon_bone 0.000000 0.000000 0.000000 0.000000 0.000000 0.000000 10.000000 
L_front_hand01_01 0.000000 0.000000 0.000000 0.000000 0.000000 0.000000 10.000000 
L_front_hand02_01 0.000000 0.000000 0.000000 0.000000 0.000000 0.000000 10.000000 
L_front_hand03_01 0.000000 0.000000 0.000000 0.000000 0.000000 0.000000 10.000000 
L_front_hand01_02 0.000000 0.000000 0.000000 0.000000 0.000000 0.000000 10.000000 
L_front_hand02_02 0.000000 0.000000 0.000000 0.000000 0.000000 0.000000 10.000000 
L_front_hand03_02 0.000000 0.000000 0.000000 0.000000 0.000000 0.000000 10.000000 
R_forearm 0.000000 0.000000 0.000000 0.000000 0.000000 0.000000 10.000000 
R_front_hand 0.000000 0.000000 0.000000 0.000000 0.000000 0.000000 10.000000 
R_weapon_bone 0.000000 0.000000 0.000000 0.000000 0.000000 0.000000 10.000000 
R_front_hand01_01 0.000000 0.000000 0.000000 0.000000 0.000000 0.000000 10.000000 
R_front_hand02_01 0.000000 0.000000 0.000000 0.000000 0.000000 0.000000 10.000000 
R_front_hand03_01 0.000000 0.000000 0.000000 0.000000 0.000000 0.000000 10.000000 
R_front_hand01_02 0.000000 0.000000 0.000000 0.000000 0.000000 0.000000 10.000000 
R_front_hand02_02 0.000000 0.000000 0.000000 0.000000 0.000000 0.000000 10.000000 
R_front_hand03_02 0.000000 0.000000 0.000000 0.000000 0.000000 0.000000 10.000000 
null_rope01_connect 0.000000 0.000000 0.000000 0.000000 0.000000 0.000000 10.000000 
Rope1_Seg01 0.000000 0.000000 0.000000 0.000000 0.000000 0.000000 10.000000 
Rope1_Seg02 0.000000 0.000000 0.000000 0.000000 0.000000 0.000000 10.000000 
Rope1_Seg03 0.000000 0.000000 0.000000 0.000000 0.000000 0.000000 10.000000 
Rope1_Seg04 0.000000 0.000000 0.000000 0.000000 0.000000 0.000000 10.000000 
Rope1_Seg05 0.000000 0.000000 0.000000 0.000000 0.000000 0.000000 10.000000 
Rope1_Seg06 0.000000 0.000000 0.000000 0.000000 0.000000 0.000000 10.000000 
Rope1_Seg07 0.000000 0.000000 0.000000 0.000000 0.000000 0.000000 10.000000 
Rope1_Seg09 0.000000 0.000000 0.000000 0.000000 0.000000 0.000000 10.000000 
L_mid_hand01 0.000000 0.000000 0.000000 0.000000 0.000000 0.000000 10.000000 
L_mid_hand02 0.000000 0.000000 0.000000 0.000000 0.000000 0.000000 10.000000 
L_mid_hand03 0.000000 0.000000 0.000000 0.000000 0.000000 0.000000 10.000000 
null_rope02_connect 0.000000 0.000000 0.000000 0.000000 0.000000 0.000000 10.000000 
Rope2_Seg01 0.000000 0.000000 0.000000 0.000000 0.000000 0.000000 10.000000 
Rope2_Seg02 0.000000 0.000000 0.000000 0.000000 0.000000 0.000000 10.000000 
Rope2_Seg03 0.000000 0.000000 0.000000 0.000000 0.000000 0.000000 10.000000 
Rope2_Seg04 0.000000 0.000000 0.000000 0.000000 0.000000 0.000000 10.000000 
Rope2_Seg05 0.000000 0.000000 0.000000 0.000000 0.000000 0.000000 10.000000 
Rope2_Seg06 0.000000 0.000000 0.000000 0.000000 0.000000 0.000000 10.000000 
Rope2_Seg07 0.000000 0.000000 0.000000 0.000000 0.000000 0.000000 10.000000 
Rope2_Seg09 0.000000 0.000000 0.000000 0.000000 0.000000 0.000000 10.000000 
R_mid_hand01 0.000000 0.000000 0.000000 0.000000 0.000000 0.000000 10.000000 
R_mid_hand02 0.000000 0.000000 0.000000 0.000000 0.000000 0.000000 10.000000 
R_mid_hand03 0.000000 0.000000 0.000000 0.000000 0.000000 0.000000 10.000000 
spine02 0.000000 0.000000 0.000000 0.000000 0.000000 0.000000 10.000000 
spine03 0.000000 0.000000 0.000000 0.000000 0.000000 0.000000 10.000000 
pelvis 0.000000 0.000000 0.000000 0.000000 0.000000 0.000000 10.000000 
null_rope03_connect 0.000000 0.000000 0.000000 0.000000 0.000000 0.000000 10.000000 
null_rope04_connect 0.000000 0.000000 0.000000 0.000000 0.000000 0.000000 10.000000 
Rope3_Seg01 0.000000 0.000000 0.000000 0.000000 0.000000 0.000000 10.000000 
Rope3_Seg02 0.000000 0.000000 0.000000 0.000000 0.000000 0.000000 10.000000 
Rope3_Seg03 0.000000 0.000000 0.000000 0.000000 0.000000 0.000000 10.000000 
Rope3_Seg04 0.000000 0.000000 0.000000 0.000000 0.000000 0.000000 10.000000 
Rope3_Seg05 0.000000 0.000000 0.000000 0.000000 0.000000 0.000000 10.000000 
Rope3_Seg06 0.000000 0.000000 0.000000 0.000000 0.000000 0.000000 10.000000 
Rope3_Seg07 0.000000 0.000000 0.000000 0.000000 0.000000 0.000000 10.000000 
Rope3_Seg08 0.000000 0.000000 0.000000 0.000000 0.000000 0.000000 10.000000 
Rope3_Seg09 0.000000 0.000000 0.000000 0.000000 0.000000 0.000000 10.000000 
R_rear_hand01 0.000000 0.000000 0.000000 0.000000 0.000000 0.000000 10.000000 
R_rear_hand02 0.000000 0.000000 0.000000 0.000000 0.000000 0.000000 10.000000 
R_rear_hand03 0.000000 0.000000 0.000000 0.000000 0.000000 0.000000 10.000000 
Rope4_Seg01 0.000000 0.000000 0.000000 0.000000 0.000000 0.000000 10.000000 
Rope4_Seg02 0.000000 0.000000 0.000000 0.000000 0.000000 0.000000 10.000000 
Rope4_Seg03 0.000000 0.000000 0.000000 0.000000 0.000000 0.000000 10.000000 
Rope4_Seg04 0.000000 0.000000 0.000000 0.000000 0.000000 0.000000 10.000000 
Rope4_Seg05 0.000000 0.000000 0.000000 0.000000 0.000000 0.000000 10.000000 
Rope4_Seg06 0.000000 0.000000 0.000000 0.000000 0.000000 0.000000 10.000000 
Rope4_Seg07 0.000000 0.000000 0.000000 0.000000 0.000000 0.000000 10.000000 
Rope4_Seg08 0.000000 0.000000 0.000000 0.000000 0.000000 0.000000 10.000000 
Rope4_Seg09 0.000000 0.000000 0.000000 0.000000 0.000000 0.000000 10.000000 
L_rear_hand01 0.000000 0.000000 0.000000 0.000000 0.000000 0.000000 10.000000 
L_rear_hand02 0.000000 0.000000 0.000000 0.000000 0.000000 0.000000 10.000000 
L_rear_hand03 0.000000 0.000000 0.000000 0.000000 0.000000 0.000000 10.000000 
#Beginning of Data. Separated by tabs
#Fr	Tx	Ty	Tz	Rx	Ry	Rz	SF
[MASTER]
4 0.000000 0.000000 0.000000 0.001660 0.001660 0.001660 0.000000
5 0.000000 0.000000 0.000000 0.001660 0.001660 0.001660 0.000000
[root]
4 -16.502304 9.364140 1448.317383 -91.728905 -11.584499 -89.471634 1448.441650
5 -16.502304 9.364140 1448.317383 -91.728889 -11.584497 -89.471619 1448.441650
[chest]
4 -84.512650 -34.090519 0.000000 -2.144813 0.313244 176.732239 91.129311
5 -84.512650 -34.090519 0.000000 -2.144813 0.313244 176.732239 91.129311
[L_mid_tent01]
4 27.299511 22.177458 -249.918259 -28.266106 32.791584 -5.365355 252.381134
5 27.299511 22.177458 -249.918259 -28.266100 32.791580 -5.365355 252.381134
[R_mid_tent01]
4 23.228794 24.509907 226.238495 -156.204071 -32.814346 0.416457 228.744751
5 23.228794 24.509907 226.238495 -156.204071 -32.814335 0.416458 228.744751
[spine01]
4 -0.361383 -0.195265 0.000000 -0.000001 -0.000007 22.052340 0.410763
5 -0.361383 -0.195265 0.000000 -0.000001 -0.000007 22.052340 0.410763
[Bip01_Neck]
4 165.484543 71.581718 0.000119 175.896118 1.177290 24.871185 180.302734
5 165.484543 71.581718 0.000119 175.896118 1.177290 24.871183 180.302734
[L_humerus]
4 -13.983130 -135.272980 -120.471481 139.909851 88.317978 -130.290146 181.680161
5 -13.983130 -135.272980 -120.471481 139.909836 88.317749 -130.290085 181.680161
[R_humerus]
4 -13.983309 -135.273102 125.287651 133.576981 -87.684464 -45.901276 184.909012
5 -13.983309 -135.273102 125.287651 133.576981 -87.684464 -45.901276 184.909012
[weapon_bone]
4 235.964890 -300.705902 0.000000 0.000000 -89.951546 -128.212341 382.234833
5 235.964890 -300.705902 0.000000 0.000000 -89.951546 -128.212341 382.234833
[Bip01_Head]
4 193.865784 99.525146 7.890730 1.727521 4.534425 -43.429157 218.062973
5 193.865784 99.525146 7.890730 1.727520 4.534424 -43.429150 218.062973
[eye_left_bone]
4 -24.626970 125.451866 -64.772606 0.000000 -90.000000 -99.840431 143.318359
5 -24.626970 125.451866 -64.772606 0.000000 -90.000000 -99.840431 143.318359
[eye_right_bone]
4 -24.626970 125.451866 64.327362 0.000000 -89.980217 80.156380 143.117676
5 -24.626970 125.451866 64.327362 0.000000 -89.965736 80.156380 143.117676
[L_forearm]
4 322.776093 0.000000 -0.000119 0.000248 -0.002334 -102.125252 322.776093
5 322.776093 0.000000 -0.000119 0.000248 -0.002334 -102.125244 322.776093
[L_front_hand]
4 241.149185 -0.042021 -3.300071 -179.659958 -2.242151 -0.019832 241.171753
5 241.149185 -0.042021 -3.300071 -179.659958 -2.242151 -0.019832 241.171753
[L_weapon_bone]
4 156.183838 0.000000 0.000000 0.000014 0.000007 0.000001 156.183838
5 156.183838 0.000000 0.000000 0.000014 0.000007 0.000001 156.183838
[L_front_hand01_01]
4 86.095154 20.947098 -0.655860 -0.366594 -0.477154 75.385574 88.609184
5 86.095154 20.947098 -0.655860 -0.366594 -0.477154 75.385574 88.609184
[L_front_hand02_01]
4 86.935165 -11.437475 24.513514 154.399796 -59.883835 -61.369587 91.046425
5 86.935165 -11.437475 24.513514 154.399796 -59.883835 -61.369587 91.046425
[L_front_hand03_01]
4 86.637497 -14.123976 -20.424902 -153.913849 58.118122 -62.702866 90.126129
5 86.637497 -14.123976 -20.424902 -153.913849 58.118122 -62.702866 90.126129
[L_front_hand01_02]
4 71.020905 -0.000179 0.000030 0.000334 -0.002323 -106.379700 71.020905
5 71.020905 -0.000179 0.000030 0.000334 -0.002323 -106.379684 71.020905
[L_front_hand02_02]
4 71.020927 -0.000119 0.000060 0.000334 -0.002323 -106.379700 71.020927
5 71.020927 -0.000119 0.000060 0.000334 -0.002323 -106.379684 71.020927
[L_front_hand03_02]
4 71.020905 -0.000060 0.000060 0.000334 -0.002323 -106.379700 71.020905
5 71.020905 -0.000060 0.000060 0.000334 -0.002323 -106.379684 71.020905
[R_forearm]
4 322.776428 -0.000060 0.000030 0.208463 0.026596 -98.191154 322.776428
5 322.776428 -0.000060 0.000030 0.208463 0.026596 -98.191154 322.776428
[R_front_hand]
4 238.847015 -0.006795 2.210259 -0.270529 1.703932 2.322530 238.857239
5 238.847015 -0.006795 2.210259 -0.270529 1.703932 2.322530 238.857239
[R_weapon_bone]
4 155.664093 0.002503 -0.000030 0.003487 0.001180 -90.988930 155.664078
5 155.664093 0.002503 -0.000030 0.003487 0.001180 -90.988930 155.664078
[R_front_hand01_01]
4 87.624611 14.231146 22.918642 -154.633499 -59.950634 61.746063 91.683487
5 87.624611 14.231146 22.918642 -154.633499 -59.950619 61.746044 91.683487
[R_front_hand02_01]
4 89.356956 14.367283 -19.491137 154.602661 58.302849 63.744389 92.579636
5 89.356956 14.367283 -19.491137 154.602661 58.302849 63.744389 92.579636
[R_front_hand03_01]
4 87.286232 -22.307278 -0.143439 0.162155 -0.423168 -75.767921 90.091743
5 87.286232 -22.307278 -0.143439 0.162155 -0.423168 -75.767921 90.091743
[R_front_hand01_02]
4 71.020905 0.000060 0.000119 0.002323 -0.000334 106.381714 71.020905
5 71.020905 0.000060 0.000119 0.002323 -0.000334 106.381714 71.020905
[R_front_hand02_02]
4 71.020844 -0.000030 -0.000119 0.002323 -0.000334 106.381714 71.020836
5 71.020844 -0.000030 -0.000119 0.002323 -0.000334 106.381714 71.020836
[R_front_hand03_02]
4 71.020905 0.000000 0.000030 0.002323 -0.000334 106.381714 71.020905
5 71.020905 0.000000 0.000030 0.002323 -0.000334 106.381714 71.020905
[null_rope01_connect]
4 328.732483 0.000000 -0.000238 -119.541275 -47.109661 -141.366821 328.732483
5 328.732483 0.000000 -0.000238 -119.541275 -47.109673 -141.366806 328.732483
[Rope1_Seg01]
4 0.000000 0.000000 0.000000 18.688978 3.019390 -106.851288 0.000000
5 0.000000 0.000000 0.000000 16.113218 6.049232 -107.380775 0.000000
[Rope1_Seg02]
4 139.999863 -0.000179 0.000000 -2.313560 -0.669871 2.518459 139.999863
5 139.999863 -0.000179 0.000000 -3.389482 -0.473973 2.826367 139.999863
[Rope1_Seg03]
4 139.999924 0.000060 -0.000060 -2.562182 -0.906349 3.213205 139.999924
5 139.999924 0.000060 -0.000060 -3.537808 -0.682375 3.496858 139.999924
[Rope1_Seg04]
4 139.999924 -0.000060 -0.000119 -6.773196 -1.868163 9.721313 139.999924
5 139.999924 -0.000060 -0.000119 -9.219374 -0.176060 9.568353 139.999924
[Rope1_Seg05]
4 139.999832 0.000119 -0.000060 5.403782 0.341022 -6.134598 139.999832
5 139.999832 0.000119 -0.000060 6.884454 -2.059920 -4.553504 139.999832
[Rope1_Seg06]
4 139.999954 0.000119 -0.000060 17.654800 1.202771 -13.931955 139.999954
5 139.999954 0.000119 -0.000060 19.692085 -2.621241 -12.540932 139.999954
[Rope1_Seg07]
4 139.999985 0.000060 0.000000 10.441690 -1.255627 -4.951959 139.999985
5 139.999985 0.000060 0.000000 9.207554 -2.704023 -3.948998 139.999985
[Rope1_Seg09]
4 121.602913 0.000119 -0.000089 -89.793175 -1.359789 0.847147 121.602913
5 121.602913 0.000119 -0.000089 -89.793175 -1.359789 0.847147 121.602913
[L_mid_hand01]
4 103.859421 1.038730 8.195221 106.855484 -31.239275 -9.461397 104.187431
5 103.859421 1.038730 8.195221 106.855484 -31.239275 -9.461397 104.187431
[L_mid_hand02]
4 105.572853 -4.139662 -10.864139 -142.331345 25.752670 -28.774628 106.211075
5 105.572853 -4.139662 -10.864139 -142.331345 25.752670 -28.774628 106.211075
[L_mid_hand03]
4 104.641464 17.579376 -3.913581 -16.122810 9.734291 34.223598 106.179977
5 104.641464 17.579376 -3.913581 -16.122810 9.734291 34.223598 106.179977
[null_rope02_connect]
4 328.732849 0.000179 -0.000119 -116.029846 50.874500 -29.531248 328.732849
5 328.732849 0.000179 -0.000119 -116.029831 50.874489 -29.531246 328.732849
[Rope2_Seg01]
4 -0.000038 0.000153 0.000000 72.851944 1.986885 -63.056114 0.000157
5 -0.000038 0.000153 0.000000 77.703194 6.685745 -60.498592 0.000157
[Rope2_Seg02]
4 139.999741 -0.000060 -0.000119 4.942156 -8.000093 0.127287 139.999756
5 139.999741 -0.000060 -0.000119 5.720349 -9.861950 0.834815 139.999756
[Rope2_Seg03]
4 140.000107 0.000030 0.000000 0.575587 -12.944140 4.731080 140.000107
5 140.000107 0.000030 0.000000 1.545504 -14.290887 4.435110 140.000107
[Rope2_Seg04]
4 139.999802 0.000000 -0.000060 2.369371 -0.584743 -2.508766 139.999802
5 139.999802 0.000000 -0.000060 1.581383 -3.332161 -0.385767 139.999802
[Rope2_Seg05]
4 139.999985 -0.000060 0.000119 5.640499 14.096133 -11.547456 139.999985
5 139.999985 -0.000060 0.000119 1.907829 13.331429 -8.498809 139.999985
[Rope2_Seg06]
4 139.999893 -0.000030 -0.000119 5.957830 5.031577 -5.265688 139.999893
5 139.999893 -0.000030 -0.000119 2.277978 5.480883 -3.886618 139.999893
[Rope2_Seg07]
4 139.999893 0.000060 -0.000060 4.292147 1.928117 -2.658658 139.999893
5 139.999893 0.000060 -0.000060 1.685476 2.300221 -1.889059 139.999893
[Rope2_Seg09]
4 121.338966 0.000089 -0.000060 33.793236 -1.359788 -0.847141 121.338966
5 121.338966 0.000089 -0.000060 33.793236 -1.359788 -0.847141 121.338966
[R_mid_hand01]
4 104.680779 11.144459 -10.335981 -41.523792 25.424656 28.595957 105.778534
5 104.680779 11.144459 -10.335981 -41.523792 25.424656 28.595957 105.778534
[R_mid_hand02]
4 104.070427 2.443552 8.231699 72.847389 -32.746803 10.013901 104.424065
5 104.070427 2.443552 8.231699 72.847389 -32.746803 10.013901 104.424065
[R_mid_hand03]
4 106.028137 -11.221827 -5.996406 -167.901306 10.259192 -37.009720 106.788818
5 106.028137 -11.221827 -5.996406 -167.901306 10.259192 -37.009720 106.788818
[spine02]
4 129.756927 0.001550 0.000119 0.360061 -4.044797 -12.915058 129.756927
5 129.756927 0.001550 0.000119 0.360061 -4.044797 -12.915058 129.756927
[spine03]
4 78.613846 0.087372 -4.898873 1.896495 3.831287 16.473045 78.766380
5 78.613846 0.087372 -4.898873 1.896495 3.831288 16.473045 78.766380
[pelvis]
4 169.435242 0.051022 0.000000 -0.060465 -0.180225 14.087929 169.435257
5 169.435242 0.051022 0.000000 -0.060465 -0.180225 14.087930 169.435257
[null_rope03_connect]
4 -1.257226 -2.466202 137.391083 156.329987 -89.381035 -94.430733 137.418976
5 -1.257226 -2.466202 137.391083 156.329697 -89.381660 -94.430756 137.418976
[null_rope04_connect]
4 -1.259640 -2.480268 -137.844437 156.329987 -89.381035 -94.430733 137.872513
5 -1.259640 -2.480268 -137.844437 156.329697 -89.381660 -94.430756 137.872513
[Rope3_Seg01]
4 0.000010 0.000038 -0.000114 -135.589340 34.753811 -81.794945 0.000121
5 0.000010 0.000038 -0.000114 -138.145294 39.202309 -84.389320 0.000121
[Rope3_Seg02]
4 139.999924 -0.000119 0.000060 1.255035 5.041913 -3.706346 139.999924
5 139.999924 -0.000119 0.000060 1.604768 4.941030 -4.757525 139.999924
[Rope3_Seg03]
4 139.999924 -0.000119 0.000119 1.525880 6.875224 -5.339431 139.999924
5 139.999924 -0.000119 0.000119 1.835084 7.071517 -7.284059 139.999924
[Rope3_Seg04]
4 139.999924 0.000119 0.000000 1.421865 16.135798 -14.881751 139.999924
5 139.999924 0.000119 0.000000 0.203964 15.520589 -20.515203 139.999924
[Rope3_Seg05]
4 139.999924 -0.000238 0.000060 0.772751 5.114284 -3.583418 139.999924
5 139.999924 -0.000238 0.000060 -0.367723 9.267322 -9.695507 139.999924
[Rope3_Seg06]
4 139.999893 -0.000119 -0.000060 -4.001112 -11.404237 14.230797 139.999893
5 139.999893 -0.000119 -0.000060 -3.424212 -9.725646 21.210613 139.999893
[Rope3_Seg07]
4 139.999771 0.000060 -0.000119 -0.801401 -3.488963 4.094270 139.999771
5 139.999771 0.000060 -0.000119 -1.501472 -3.597327 7.585939 139.999771
[Rope3_Seg08]
4 139.999985 -0.000060 0.000000 -0.068319 -1.570214 1.857489 139.999985
5 139.999985 -0.000060 0.000000 -0.345873 -1.359699 3.018259 139.999985
[Rope3_Seg09]
4 90.185997 -0.000179 -0.000060 89.793228 -1.359877 -0.847183 90.185997
5 90.185997 -0.000179 -0.000060 89.793228 -1.359877 -0.847183 90.185997
[R_rear_hand01]
4 103.366196 -6.073594 -10.757982 -161.551193 16.666374 -30.088671 104.101845
5 103.366196 -6.073594 -10.757982 -161.551193 16.666374 -30.088671 104.101845
[R_rear_hand02]
4 100.509819 12.039542 -7.992327 -34.280552 19.289745 28.875523 101.543350
5 100.509819 12.039542 -7.992327 -34.280552 19.289745 28.875523 101.543350
[R_rear_hand03]
4 101.539970 5.215704 5.435467 83.366440 -30.933914 7.284830 101.819031
5 101.539970 5.215704 5.435467 83.366440 -30.933914 7.284830 101.819031
[Rope4_Seg01]
4 0.000010 0.000038 -0.000114 60.559284 24.521854 -68.411316 0.000121
5 0.000010 0.000038 -0.000114 62.081238 26.852873 -68.946968 0.000121
[Rope4_Seg02]
4 139.999985 0.000060 0.000119 0.948979 -12.462202 -6.842313 139.999985
5 139.999985 0.000060 0.000119 0.876432 -11.316744 -6.310724 139.999985
[Rope4_Seg03]
4 139.999924 0.000000 -0.000238 0.985621 -13.302153 -7.273279 139.999924
5 139.999924 0.000000 -0.000238 0.835539 -11.796622 -6.521982 139.999924
[Rope4_Seg04]
4 139.999985 0.000000 0.000119 1.622832 -16.743372 -11.016837 139.999985
5 139.999985 0.000000 0.000119 1.361773 -14.265728 -9.845390 139.999985
[Rope4_Seg05]
4 139.999802 -0.000060 -0.000119 0.360142 -8.222388 -4.363922 139.999802
5 139.999802 -0.000060 -0.000119 0.351418 -8.406276 -4.756436 139.999802
[Rope4_Seg06]
4 139.999924 0.000000 0.000060 1.141621 1.763638 3.962381 139.999924
5 139.999924 0.000000 0.000060 0.949755 -0.065329 3.305412 139.999924
[Rope4_Seg07]
4 139.999802 0.000000 0.000000 1.786073 7.932397 9.288033 139.999802
5 139.999802 0.000000 0.000000 1.498005 4.982029 8.366657 139.999802
[Rope4_Seg08]
4 139.999924 0.000000 0.000119 -1.135615 3.233648 4.438690 139.999924
5 139.999924 0.000000 0.000119 -1.130976 1.809303 4.124959 139.999924
[Rope4_Seg09]
4 90.185791 0.000060 0.000060 -135.617828 2.228885 0.850567 90.185791
5 90.185791 0.000060 0.000060 -135.617828 2.228885 0.850567 90.185791
[L_rear_hand01]
4 101.696655 -8.392275 -7.654577 -34.454281 -18.946800 151.655121 102.329041
5 101.696655 -8.392275 -7.654577 -34.454281 -18.946800 151.655121 102.329041
[L_rear_hand02]
4 102.726799 -1.568258 5.773216 83.407906 30.330435 172.796509 102.900848
5 102.726799 -1.568258 5.773216 83.407906 30.330435 172.796509 102.900848
[L_rear_hand03]
4 104.552910 9.721220 -10.420293 -161.379868 -16.473232 -150.512238 105.519653
5 104.552910 9.721220 -10.420293 -161.379868 -16.473232 -150.512238 105.519653
